<svg width="20" height="23" viewBox="0 0 20 23" fill="none" xmlns="http://www.w3.org/2000/svg">
<path d="M3.76758 1.5L0.767578 5.5V19.5C0.767578 20.0304 0.978292 20.5391 1.35336 20.9142C1.72844 21.2893 2.23715 21.5 2.76758 21.5H16.7676C17.298 21.5 17.8067 21.2893 18.1818 20.9142C18.5569 20.5391 18.7676 20.0304 18.7676 19.5V5.5L15.7676 1.5H3.76758Z" stroke="#F5C249" stroke-width="1.5" stroke-linecap="round" stroke-linejoin="round"/>
<path d="M0.767578 5.5H18.7676" stroke="#F5C249" stroke-width="1.5" stroke-linecap="round" stroke-linejoin="round"/>
<path d="M13.7676 9.5C13.7676 10.5609 13.3462 11.5783 12.596 12.3284C11.8459 13.0786 10.8284 13.5 9.76758 13.5C8.70671 13.5 7.6893 13.0786 6.93915 12.3284C6.18901 11.5783 5.76758 10.5609 5.76758 9.5" stroke="#F5C249" stroke-width="1.5" stroke-linecap="round" stroke-linejoin="round"/>
</svg>
