<svg width="136" height="40" viewBox="0 0 136 40" fill="none" xmlns="http://www.w3.org/2000/svg">
<path d="M130.78 39.4957H5.1159C2.56924 39.4957 0.505577 37.4321 0.505577 34.8854V5.11593C0.505577 2.56928 2.56924 0.505615 5.1159 0.505615H130.78C133.327 0.505615 135.39 2.56928 135.39 5.11593V34.8854C135.39 37.4321 133.327 39.4957 130.78 39.4957Z" fill="#252525"/>
<path d="M5.11282 1.00988C2.84913 1.00988 1.00744 2.85157 1.00744 5.11526V34.8847C1.00744 37.1484 2.84913 38.9901 5.11282 38.9901H130.779C133.043 38.9901 134.885 37.1484 134.885 34.8847V5.11526C134.885 2.85157 133.043 1.00988 130.779 1.00988H5.11282ZM130.779 40H5.11282C2.29296 40 0 37.7046 0 34.8847V5.11526C0 2.2954 2.29296 0 5.11282 0H130.779C133.599 0 135.892 2.2954 135.892 5.11526V34.8847C135.892 37.7046 133.599 40 130.779 40Z" fill="#FCFFFD"/>
<path d="M47.1233 10.4692L46.6062 8.84945C46.4793 8.4494 46.372 8.00301 46.2744 7.62247H46.2549C46.1598 8.00301 46.0598 8.45916 45.9451 8.84945L45.4377 10.4692H47.1233ZM45.2426 11.3742L44.6767 13.2378H43.4375L45.5451 6.66626H47.0745L49.2089 13.2378H47.9234L47.3282 11.3742" fill="#FCFFFD"/>
<path d="M51.0008 8.49219L51.7717 10.8974C51.9083 11.3169 52.0034 11.6975 52.0912 12.0877H52.1205C52.2083 11.6975 52.3156 11.3267 52.4425 10.8974L53.2036 8.49219H54.4598L52.6474 13.2391H51.4692L49.7031 8.49219" fill="#FCFFFD"/>
<path d="M58.0766 10.917C57.2277 10.9073 56.4179 11.0829 56.4179 11.8049C56.4179 12.2733 56.7203 12.4879 57.1009 12.4879C57.5863 12.4879 57.9302 12.1757 58.0449 11.8342C58.0766 11.7464 58.0766 11.6586 58.0766 11.5708V10.917ZM59.245 12.0977C59.245 12.527 59.2646 12.9465 59.3231 13.2368H58.24L58.1547 12.7124H58.1229C57.8424 13.0807 57.3448 13.3442 56.7203 13.3442C55.7641 13.3442 55.2299 12.6538 55.2299 11.9318C55.2299 10.7414 56.291 10.1291 58.0449 10.1389V10.0608C58.0449 9.74859 57.9205 9.23145 57.0814 9.23145C56.613 9.23145 56.1251 9.37781 55.8032 9.58272L55.569 8.80213C55.9202 8.58747 56.5349 8.38501 57.2863 8.38501C58.806 8.38501 59.245 9.34854 59.245 10.3926" fill="#FCFFFD"/>
<path d="M60.9411 8.49074H62.1388V13.2377H60.9411V8.49074ZM61.5338 7.80773C61.1362 7.80773 60.8728 7.51501 60.8728 7.16375C60.8728 6.79297 61.1435 6.51001 61.546 6.51001C61.9534 6.51001 62.2071 6.79297 62.2168 7.16375C62.2168 7.51501 61.9534 7.80773 61.546 7.80773" fill="#FCFFFD"/>
<path d="M63.8638 13.2372H65.064V6.30469H63.8638V13.2372Z" fill="#FCFFFD"/>
<path d="M69.3132 10.917C68.4643 10.9073 67.6545 11.0829 67.6545 11.8049C67.6545 12.2733 67.9569 12.4879 68.3375 12.4879C68.8253 12.4879 69.1668 12.1757 69.2839 11.8342C69.3132 11.7464 69.3132 11.6586 69.3132 11.5708V10.917ZM70.4816 12.0977C70.4816 12.527 70.5012 12.9465 70.5597 13.2368H69.4791L69.3913 12.7124H69.362C69.079 13.0807 68.5814 13.3442 67.9569 13.3442C67.0032 13.3442 66.4665 12.6538 66.4665 11.9318C66.4665 10.7414 67.5301 10.1291 69.2839 10.1389V10.0608C69.2839 9.74859 69.1571 9.23145 68.318 9.23145C67.8496 9.23145 67.3617 9.37781 67.0422 9.58272L66.808 8.80213C67.1593 8.58747 67.7716 8.38501 68.5229 8.38501C70.0426 8.38501 70.4816 9.34854 70.4816 10.3926" fill="#FCFFFD"/>
<path d="M73.3776 11.276C73.3776 11.3736 73.3873 11.4712 73.4068 11.559C73.5337 12.0469 73.9532 12.3981 74.4679 12.3981C75.2193 12.3981 75.6778 11.8029 75.6778 10.8394C75.6778 10.0003 75.2778 9.31725 74.4777 9.31725C73.9898 9.31725 73.5434 9.66851 73.4166 10.1954C73.3971 10.2832 73.3776 10.3906 73.3776 10.5076V11.276ZM72.1774 6.30469H73.3776V9.14162H73.3971C73.6898 8.68303 74.2045 8.38299 74.9168 8.38299C76.0779 8.38299 76.9048 9.34652 76.8951 10.7906C76.8951 12.4957 75.8144 13.3446 74.7411 13.3446C74.1264 13.3446 73.5825 13.1104 73.241 12.525H73.2214L73.1629 13.2372H72.1384C72.1579 12.9152 72.1774 12.3884 72.1774 11.9102" fill="#FCFFFD"/>
<path d="M78.3069 13.2372H79.5046V6.30469H78.3069V13.2372Z" fill="#FCFFFD"/>
<path d="M84.1745 10.3633C84.1842 9.92422 83.9891 9.20218 83.1914 9.20218C82.4499 9.20218 82.1376 9.87544 82.0889 10.3633H84.1745ZM82.0889 11.2C82.1181 12.0586 82.7914 12.4294 83.5525 12.4294C84.1062 12.4294 84.4965 12.3416 84.8672 12.2147L85.0429 13.0319C84.6331 13.21 84.0672 13.3344 83.3866 13.3344C81.8449 13.3344 80.9375 12.3904 80.9375 10.939C80.9375 9.62175 81.7376 8.38501 83.2597 8.38501C84.7989 8.38501 85.3063 9.65102 85.3063 10.695C85.3063 10.9195 85.2868 11.0951 85.2673 11.2" fill="#FCFFFD"/>
<path d="M91.2589 12.4782C91.9395 12.4782 92.4176 11.8147 92.4176 10.8512C92.4176 10.1096 92.0858 9.25097 91.2686 9.25097C90.4198 9.25097 90.0783 10.0803 90.0783 10.8707C90.0783 11.7854 90.5368 12.4782 91.2467 12.4782H91.2589ZM91.2199 13.3466C89.8831 13.3466 88.8415 12.4294 88.8415 10.9C88.8415 9.33878 89.8636 8.38501 91.2979 8.38501C92.7103 8.38501 93.6567 9.37781 93.6567 10.8219C93.6567 12.566 92.4273 13.3466 91.2296 13.3466" fill="#FCFFFD"/>
<path d="M95.0678 9.90471C95.0678 9.3583 95.0508 8.89971 95.0312 8.4899H96.0728L96.1314 9.20218H96.1607C96.3753 8.83141 96.8925 8.38501 97.6828 8.38501C98.5097 8.38501 99.3684 8.91922 99.3684 10.4218V13.2368H98.1682V10.5584C98.1682 9.87544 97.9145 9.3583 97.2632 9.3583C96.7851 9.3583 96.4534 9.6998 96.3265 10.0608C96.2875 10.1584 96.268 10.3048 96.268 10.4414V13.2368H95.0678" fill="#FCFFFD"/>
<path d="M104.893 7.27124V8.48846H106.032V9.38613H104.893V11.4718C104.893 12.0572 105.049 12.3499 105.505 12.3499C105.72 12.3499 105.837 12.3402 105.974 12.3011L105.993 13.2061C105.817 13.2769 105.495 13.333 105.125 13.333C104.678 13.333 104.317 13.1866 104.093 12.9451C103.829 12.6719 103.712 12.2328 103.712 11.6084V9.38613H103.039V8.48846H103.712V7.60299" fill="#FCFFFD"/>
<path d="M107.367 6.30469H108.567V9.13186H108.587C108.733 8.90744 108.938 8.72206 109.182 8.59521C109.426 8.46105 109.706 8.38299 110.009 8.38299C110.819 8.38299 111.665 8.9172 111.665 10.4393V13.2372H110.468V10.5662C110.468 9.88317 110.214 9.35628 109.55 9.35628C109.084 9.35628 108.753 9.66851 108.616 10.0295C108.577 10.1369 108.567 10.2637 108.567 10.3906V13.2372H107.367" fill="#FCFFFD"/>
<path d="M116.305 10.3633C116.315 9.92422 116.12 9.20218 115.32 9.20218C114.578 9.20218 114.268 9.87544 114.219 10.3633H116.305ZM114.219 11.2C114.249 12.0586 114.92 12.4294 115.681 12.4294C116.237 12.4294 116.627 12.3416 116.995 12.2147L117.173 13.0319C116.764 13.21 116.198 13.3344 115.515 13.3344C113.976 13.3344 113.068 12.3904 113.068 10.939C113.068 9.62175 113.868 8.38501 115.388 8.38501C116.927 8.38501 117.434 9.65102 117.434 10.695C117.434 10.9195 117.415 11.0951 117.395 11.2" fill="#FCFFFD"/>
<path d="M30.3293 19.6098C30.2975 16.3582 32.9906 14.7751 33.115 14.7019C31.5904 12.4772 29.2267 12.1748 28.3949 12.1504C26.4117 11.943 24.4871 13.3408 23.4772 13.3408C22.4454 13.3408 20.8866 12.1723 19.2108 12.2065C17.0496 12.2406 15.0298 13.492 13.9224 15.4313C11.6392 19.3903 13.3418 25.2056 15.5323 28.406C16.63 29.9721 17.9082 31.7235 19.584 31.6601C21.2233 31.5918 21.8355 30.616 23.8138 30.616C25.775 30.616 26.3507 31.6601 28.0607 31.621C29.8194 31.5918 30.9269 30.0477 31.9831 28.4646C33.2516 26.6692 33.7589 24.9007 33.7785 24.8105C33.737 24.7958 30.3634 23.5079 30.3293 19.6098Z" fill="#FCFFFD"/>
<path d="M27.0976 10.047C27.9782 8.94444 28.5856 7.44181 28.4148 5.91968C27.139 5.97822 25.5437 6.80271 24.6241 7.88089C23.8118 8.83223 23.0824 10.391 23.2727 11.8545C24.707 11.9619 26.1779 11.1325 27.0976 10.047Z" fill="#FCFFFD"/>
<path d="M50.1119 25.8168L48.9801 22.3213C48.8605 21.9651 48.6361 21.1236 48.3044 19.8015H48.2654C48.1336 20.3698 47.919 21.2114 47.6287 22.3213L46.5164 25.8168H50.1119ZM54.0246 31.4004H51.7389L50.4876 27.4682H46.1407L44.9479 31.4004H42.7232L47.0359 18.0134H49.6948" fill="#FCFFFD"/>
<path d="M62.9231 26.535C62.9231 25.5935 62.7109 24.8202 62.2865 24.2104C61.823 23.5761 61.201 23.2566 60.4204 23.2566C59.891 23.2566 59.4081 23.4347 58.9812 23.7835C58.5519 24.1372 58.2689 24.5958 58.1347 25.1666C58.0689 25.43 58.0372 25.6471 58.0372 25.8179V27.4278C58.0372 28.1304 58.2518 28.7231 58.6811 29.2061C59.1129 29.6915 59.6715 29.9306 60.3594 29.9306C61.1693 29.9306 61.7986 29.6208 62.245 28.9963C62.6987 28.3743 62.9231 27.5547 62.9231 26.535ZM65.1088 26.4545C65.1088 28.0962 64.6648 29.3964 63.7769 30.3477C62.9817 31.1966 61.9937 31.6186 60.818 31.6186C59.5447 31.6186 58.6324 31.16 58.0762 30.2477H58.0372V35.3337H55.8906V24.9251C55.8906 23.8933 55.8662 22.8346 55.8125 21.7467H57.6981L57.8176 23.2786H57.8591C58.5738 22.1248 59.6593 21.5491 61.1156 21.5491C62.2523 21.5491 63.2061 22.0003 63.9647 22.9005C64.7258 23.803 65.1088 24.9861 65.1088 26.4545Z" fill="#FCFFFD"/>
<path d="M74.0245 26.535C74.0245 25.5935 73.8123 24.8202 73.3878 24.2104C72.9243 23.5761 72.3023 23.2566 71.5217 23.2566C70.9924 23.2566 70.5119 23.4347 70.0825 23.7835C69.6508 24.1372 69.3727 24.5958 69.241 25.1666C69.1727 25.43 69.141 25.6471 69.141 25.8179V27.4278C69.141 28.1304 69.3532 28.7231 69.7825 29.2061C70.2143 29.6915 70.7729 29.9306 71.4632 29.9306C72.2706 29.9306 72.9 29.6208 73.3488 28.9963C73.7976 28.3743 74.0245 27.5547 74.0245 26.535ZM76.2077 26.4545C76.2077 28.0962 75.7662 29.3964 74.8782 30.3477C74.083 31.1966 73.0975 31.6186 71.9193 31.6186C70.6485 31.6186 69.7362 31.16 69.1775 30.2477H69.141V35.3337H66.9944V24.9251C66.9944 23.8933 66.9675 22.8346 66.9163 21.7467H68.8019L68.9214 23.2786H68.9629C69.6752 22.1248 70.7607 21.5491 72.2169 21.5491C73.3561 21.5491 74.305 22.0003 75.0685 22.9005C75.8296 23.803 76.2077 24.9861 76.2077 26.4545Z" fill="#FCFFFD"/>
<path d="M88.6231 27.6476C88.6231 28.7843 88.2279 29.7113 87.4327 30.4284C86.5594 31.209 85.3471 31.5993 83.7883 31.5993C82.3467 31.5993 81.1905 31.3212 80.3147 30.7651L80.8124 28.9795C81.7564 29.5478 82.7882 29.8308 83.9152 29.8308C84.7226 29.8308 85.3519 29.6503 85.8032 29.2868C86.252 28.9209 86.4765 28.4331 86.4765 27.8232C86.4765 27.2817 86.2935 26.8207 85.9227 26.4499C85.552 26.0791 84.9348 25.7352 84.0737 25.4156C81.7295 24.5399 80.5587 23.2593 80.5587 21.5761C80.5587 20.476 80.9685 19.5734 81.7905 18.8709C82.6101 18.1684 83.703 17.8147 85.0665 17.8147C86.2862 17.8147 87.2985 18.0294 88.1059 18.4514L87.5693 20.2004C86.8155 19.7905 85.9618 19.5832 85.008 19.5832C84.2518 19.5832 83.6639 19.7686 83.2419 20.1394C82.8858 20.4711 82.7053 20.876 82.7053 21.3517C82.7053 21.881 82.9077 22.3177 83.32 22.6616C83.6761 22.9787 84.325 23.3227 85.2666 23.6959C86.4179 24.1594 87.2644 24.7009 87.8083 25.3229C88.3499 25.945 88.6231 26.7207 88.6231 27.6476Z" fill="#FCFFFD"/>
<path d="M95.7114 23.3564H93.3477V28.0424C93.3477 29.2352 93.7648 29.8304 94.6015 29.8304C94.982 29.8304 95.3015 29.7987 95.5528 29.7328L95.6113 31.3598C95.1918 31.5208 94.6332 31.5989 93.9453 31.5989C93.0988 31.5989 92.4353 31.3403 91.9572 30.8256C91.4816 30.3085 91.2425 29.4401 91.2425 28.2229V23.3564H89.8326V21.7465H91.2425V19.9804L93.3477 19.3438V21.7465H95.7114" fill="#FCFFFD"/>
<path d="M104.154 26.5643C104.154 25.674 103.961 24.9129 103.576 24.2738C103.13 23.503 102.486 23.1176 101.651 23.1176C100.79 23.1176 100.134 23.503 99.6852 24.2738C99.2998 24.9129 99.112 25.6886 99.112 26.6058C99.112 27.4961 99.2998 28.2572 99.6852 28.8939C100.149 29.6647 100.798 30.0501 101.634 30.0501C102.451 30.0501 103.095 29.6598 103.559 28.8744C103.956 28.2255 104.154 27.4547 104.154 26.5643ZM106.379 26.496C106.379 27.9791 105.957 29.1963 105.108 30.1501C104.22 31.1307 103.042 31.6186 101.573 31.6186C100.154 31.6186 99.0266 31.1478 98.185 30.2087C97.3459 29.2695 96.9263 28.084 96.9263 26.6546C96.9263 25.1568 97.3581 23.9323 98.2265 22.981C99.0925 22.0247 100.261 21.5491 101.729 21.5491C103.147 21.5491 104.288 22.0199 105.147 22.959C105.969 23.8762 106.379 25.0519 106.379 26.496Z" fill="#FCFFFD"/>
<path d="M113.349 23.6347C113.137 23.5957 112.913 23.5761 112.674 23.5761C111.92 23.5761 111.334 23.8615 110.925 24.4299C110.568 24.9349 110.39 25.5691 110.39 26.335V31.4015H108.246L108.263 24.7885C108.263 23.6737 108.236 22.6614 108.185 21.7467H110.054L110.132 23.5957H110.188C110.415 22.9614 110.773 22.4492 111.261 22.0662C111.739 21.7223 112.256 21.5491 112.813 21.5491C113.01 21.5491 113.191 21.5637 113.349 21.5881" fill="#FCFFFD"/>
<path d="M120.896 25.5613C120.911 24.927 120.772 24.3757 120.482 23.9123C120.111 23.3171 119.538 23.017 118.772 23.017C118.072 23.017 117.501 23.3098 117.064 23.8928C116.708 24.3562 116.493 24.9124 116.432 25.5613H120.896ZM122.94 26.1174C122.94 26.5028 122.916 26.8248 122.865 27.0907H116.432C116.454 28.0445 116.767 28.7738 117.364 29.2763C117.906 29.7276 118.608 29.9496 119.469 29.9496C120.421 29.9496 121.289 29.7984 122.072 29.4934L122.409 30.9839C121.494 31.379 120.416 31.5815 119.169 31.5815C117.674 31.5815 116.498 31.14 115.644 30.2569C114.793 29.3788 114.364 28.1957 114.364 26.7126C114.364 25.2563 114.759 24.044 115.557 23.078C116.388 22.0437 117.515 21.5291 118.93 21.5291C120.321 21.5291 121.377 22.0437 122.092 23.078C122.66 23.8976 122.94 24.9124 122.94 26.1174Z" fill="#FCFFFD"/>
</svg>
