<svg width="22" height="21" viewBox="0 0 22 21" fill="none" xmlns="http://www.w3.org/2000/svg">
<path d="M11.1886 9.97343C11.7685 9.97343 12.2386 9.50215 12.2386 8.9208C12.2386 8.33944 11.7685 7.86816 11.1886 7.86816C10.6087 7.86816 10.1386 8.33944 10.1386 8.9208C10.1386 9.50215 10.6087 9.97343 11.1886 9.97343Z" fill="#F5C249"/>
<path d="M15.3891 9.97343C15.969 9.97343 16.4391 9.50215 16.4391 8.9208C16.4391 8.33944 15.969 7.86816 15.3891 7.86816C14.8092 7.86816 14.3391 8.33944 14.3391 8.9208C14.3391 9.50215 14.8092 9.97343 15.3891 9.97343Z" fill="#F5C249"/>
<path d="M6.9886 9.97343C7.5685 9.97343 8.0386 9.50215 8.0386 8.9208C8.0386 8.33944 7.5685 7.86816 6.9886 7.86816C6.4087 7.86816 5.9386 8.33944 5.9386 8.9208C5.9386 9.50215 6.4087 9.97343 6.9886 9.97343Z" fill="#F5C249"/>
<path d="M18.5386 0.5H3.8386C3.00317 0.5 2.20195 0.832706 1.61121 1.42493C1.02047 2.01715 0.688599 2.82037 0.688599 3.65789V19.4474C0.688919 19.6339 0.738672 19.817 0.832764 19.9779C0.926856 20.1388 1.06191 20.2718 1.2241 20.3632C1.38103 20.4523 1.55822 20.4994 1.7386 20.5C1.92706 20.4999 2.11203 20.449 2.2741 20.3526L6.9886 17.4895C7.16286 17.3855 7.36344 17.3343 7.5661 17.3421H18.5386C19.374 17.3421 20.1752 17.0094 20.766 16.4172C21.3567 15.825 21.6886 15.0217 21.6886 14.1842V3.65789C21.6886 2.82037 21.3567 2.01715 20.766 1.42493C20.1752 0.832706 19.374 0.5 18.5386 0.5ZM19.5886 14.1842C19.5886 14.4634 19.478 14.7311 19.2811 14.9285C19.0841 15.1259 18.8171 15.2368 18.5386 15.2368H7.5661C6.99261 15.2364 6.42988 15.3929 5.9386 15.6895L2.7886 17.5842V3.65789C2.7886 3.37872 2.89922 3.11098 3.09614 2.91357C3.29305 2.71617 3.56012 2.60526 3.8386 2.60526H18.5386C18.8171 2.60526 19.0841 2.71617 19.2811 2.91357C19.478 3.11098 19.5886 3.37872 19.5886 3.65789V14.1842Z" fill="#F5C249"/>
</svg>
