<svg width="22" height="23" viewBox="0 0 22 23" fill="none" xmlns="http://www.w3.org/2000/svg">
<path d="M4.85527 1.5L1.6886 5.5V19.5C1.6886 20.0304 1.91102 20.5391 2.30693 20.9142C2.70284 21.2893 3.23981 21.5 3.79971 21.5H18.5775C19.1374 21.5 19.6744 21.2893 20.0703 20.9142C20.4662 20.5391 20.6886 20.0304 20.6886 19.5V5.5L17.5219 1.5H4.85527Z" stroke="#F5C249" stroke-width="2.1" stroke-linecap="round" stroke-linejoin="round"/>
<path d="M1.6886 5.5H20.6886" stroke="#F5C249" stroke-width="2.1" stroke-linecap="round" stroke-linejoin="round"/>
<path d="M15.4109 9.5C15.4109 10.5609 14.966 11.5783 14.1742 12.3284C13.3824 13.0786 12.3085 13.5 11.1887 13.5C10.0688 13.5 8.99491 13.0786 8.20309 12.3284C7.41127 11.5783 6.96643 10.5609 6.96643 9.5" stroke="#F5C249" stroke-width="2.1" stroke-linecap="round" stroke-linejoin="round"/>
</svg>
