<svg width="21" height="21" viewBox="0 0 21 21" fill="none" xmlns="http://www.w3.org/2000/svg">
<path d="M10.768 4.5C9.72503 4.50132 8.72517 4.91622 7.98769 5.6537C7.25021 6.39118 6.83531 7.39104 6.83398 8.434H8.83398C8.83398 7.367 9.70198 6.5 10.768 6.5C11.834 6.5 12.702 7.367 12.702 8.434C12.702 9.032 12.221 9.466 11.486 10.06C11.2459 10.2481 11.0153 10.448 10.795 10.659C9.79698 11.656 9.76798 12.715 9.76798 12.833V13.5H11.768L11.767 12.867C11.768 12.851 11.8 12.481 12.208 12.074C12.358 11.924 12.547 11.774 12.743 11.616C13.522 10.985 14.701 10.032 14.701 8.434C14.7002 7.39106 14.2856 6.39104 13.5482 5.65347C12.8108 4.91591 11.8109 4.50106 10.768 4.5ZM9.76798 14.5H11.768V16.5H9.76798V14.5Z" fill="#F5C249"/>
<path d="M10.7676 0.5C5.25358 0.5 0.767578 4.986 0.767578 10.5C0.767578 16.014 5.25358 20.5 10.7676 20.5C16.2816 20.5 20.7676 16.014 20.7676 10.5C20.7676 4.986 16.2816 0.5 10.7676 0.5ZM10.7676 18.5C6.35658 18.5 2.76758 14.911 2.76758 10.5C2.76758 6.089 6.35658 2.5 10.7676 2.5C15.1786 2.5 18.7676 6.089 18.7676 10.5C18.7676 14.911 15.1786 18.5 10.7676 18.5Z" fill="#F5C249"/>
</svg>
