<svg width="21" height="21" viewBox="0 0 21 21" fill="none" xmlns="http://www.w3.org/2000/svg">
<path d="M2.92974 0.498047H12.6595C13.2329 0.498047 13.7829 0.70876 14.1883 1.08383C14.5938 1.45891 14.8216 1.96761 14.8216 2.49805V4.49805H12.6595V2.49805H2.92974V18.498H12.6595V16.498H14.8216V18.498C14.8216 19.0285 14.5938 19.5372 14.1883 19.9123C13.7829 20.2873 13.2329 20.498 12.6595 20.498H2.92974C2.3563 20.498 1.80634 20.2873 1.40086 19.9123C0.995377 19.5372 0.767578 19.0285 0.767578 18.498V2.49805C0.767578 1.96761 0.995377 1.45891 1.40086 1.08383C1.80634 0.70876 2.3563 0.498047 2.92974 0.498047Z" fill="#F5C249"/>
<path d="M13.8378 14.088L15.3622 15.498L20.7676 10.498L15.3622 5.49805L13.8378 6.90805L16.627 9.49805H6.17297V11.498H16.627L13.8378 14.088Z" fill="#F5C249"/>
</svg>
