<svg width="21" height="21" viewBox="0 0 21 21" fill="none" xmlns="http://www.w3.org/2000/svg">
<path d="M5.25014 1.4137L5.2503 1.41374C5.43724 0.767861 5.73566 0.503837 6.02726 0.425996C6.30769 0.351136 6.54723 0.459371 6.59973 0.483441C6.60005 0.483584 6.60035 0.483724 6.60065 0.483861L20.1318 6.36525C20.5569 6.52332 20.7478 6.89462 20.8232 7.25135C20.8986 7.60784 20.8639 7.96949 20.8218 8.14932C20.8218 8.14936 20.8218 8.14941 20.8218 8.14945L18.2944 19.1568L5.25014 1.4137ZM5.25014 1.4137L5.24889 1.41915M5.25014 1.4137L5.24889 1.41915M5.24889 1.41915L4.15254 6.19012L1.73609 6.19012L1.73508 6.19013M5.24889 1.41915L1.73508 6.19013M1.73508 6.19013C1.42799 6.19324 1.15889 6.36574 0.970151 6.62545M1.73508 6.19013L0.970151 6.62545M0.970151 6.62545C0.781318 6.88529 0.667578 7.23818 0.667578 7.62281M0.970151 6.62545L0.667578 7.62281M0.667578 7.62281V19.1673M0.667578 7.62281V19.1673M0.667578 19.1673C0.667578 19.5545 0.781224 19.9088 0.970151 20.1687M0.667578 19.1673L0.970151 20.1687M0.970151 20.1687C1.15903 20.4286 1.42852 20.6 1.73609 20.6M0.970151 20.1687L1.73609 20.6M1.73609 20.6H15.933M1.73609 20.6H15.933M15.933 20.6C16.2948 20.6 16.5997 20.3643 16.7883 20.0235M15.933 20.6L16.7883 20.0235M16.7883 20.0235C16.8297 20.0388 16.8827 20.0579 16.9383 20.0772C16.9998 20.0984 17.0655 20.12 17.1228 20.1365C17.1749 20.1515 17.2344 20.1666 17.2756 20.1666C17.7658 20.1666 18.1626 19.7398 18.2943 19.1572L16.7883 20.0235ZM6.02898 8.95562V8.85562H5.92898H2.70454H2.60454V8.95562V9.84408V9.94408H2.70454H5.92898H6.02898V9.84408V8.95562ZM7.64317 11.6209V11.5209H7.54317H2.70454H2.60454V11.6209V12.5094V12.6094H2.70454H7.54317H7.64317V12.5094V11.6209ZM14.4188 14.2862V14.1862H14.3188H2.70454H2.60454V14.2862V15.1747V15.2747H2.70454H14.3188H14.4188V15.1747V14.2862ZM4.74157 16.9463V16.8463H4.64157H2.70454H2.60454V16.9463V17.8348V17.9348H2.70454H4.64157H4.74157V17.8348V16.9463ZM7.96603 16.9463V16.8463H7.86603H5.92901H5.82901V16.9463V17.8348V17.9348H5.92901H7.86603H7.96603V17.8348V16.9463ZM11.1944 16.9463V16.8463H11.0944H9.15738H9.05738V16.9463V17.8348V17.9348H9.15738H11.0944H11.1944V17.8348V16.9463ZM16.1559 19.0673H16.1519V19.1673C16.1519 19.2701 16.1211 19.3601 16.0761 19.4221C16.0309 19.4843 15.9774 19.5115 15.9291 19.5115H1.73609C1.68781 19.5115 1.63435 19.4843 1.58913 19.4221C1.54412 19.3601 1.51325 19.2701 1.51325 19.1673V7.62281C1.51325 7.52002 1.54412 7.43 1.58913 7.36806C1.63435 7.30584 1.68781 7.27858 1.73609 7.27858H15.933C15.9813 7.27858 16.0348 7.30584 16.08 7.36806C16.125 7.43 16.1559 7.52002 16.1559 7.62281V19.0673ZM17.4852 18.847L17.4851 18.8474C17.4642 18.9405 17.4164 19.0085 17.3648 19.0452C17.3146 19.0809 17.2637 19.0862 17.2188 19.0656L17.2164 19.0645L16.9976 18.9712V11.2751L19.0217 12.1561L17.4852 18.847ZM6.05409 1.73467L6.05416 1.73436C6.07523 1.64067 6.12241 1.57278 6.17325 1.53641C6.22233 1.50129 6.27344 1.49514 6.32122 1.51656L6.32228 1.51701L19.8578 7.39491L19.8577 7.3951L19.8639 7.3973C19.955 7.43003 19.9984 7.5028 20.0165 7.5953C20.035 7.68971 20.0229 7.78958 20.0125 7.83994C20.0125 7.84024 20.0124 7.84054 20.0123 7.84084L19.8466 8.56663L16.9726 7.32022C16.8708 6.70006 16.4628 6.19554 15.933 6.19554H14.383L5.87963 2.4989L6.05409 1.73467ZM13.9961 8.41127C13.759 8.41127 13.5427 8.49462 13.3541 8.62971C13.1579 8.49014 12.9381 8.41127 12.7047 8.41127C12.3084 8.41127 11.9583 8.63287 11.7109 8.97323C11.4635 9.31372 11.3134 9.77905 11.3134 10.2882C11.3134 10.7973 11.4635 11.2626 11.7109 11.6031C11.9583 11.9435 12.3084 12.1651 12.7047 12.1651C12.9381 12.1651 13.1579 12.0862 13.3541 11.9467C13.5427 12.0817 13.759 12.1651 13.9961 12.1651C14.3923 12.1651 14.7425 11.9435 14.9899 11.6031C15.2373 11.2626 15.3874 10.7973 15.3874 10.2882C15.3874 9.77905 15.2373 9.31372 14.9899 8.97323C14.7425 8.63287 14.3923 8.41127 13.9961 8.41127ZM12.7374 11.075C12.7264 11.0761 12.7155 11.0766 12.7047 11.0766C12.5678 11.0766 12.4337 10.9993 12.3299 10.8565C12.2263 10.7139 12.159 10.5129 12.159 10.2882C12.159 10.0635 12.2263 9.86243 12.3299 9.71991C12.4337 9.5771 12.5678 9.49973 12.7047 9.49973C12.715 9.49973 12.7258 9.50057 12.7371 9.50211C12.6542 9.7404 12.6047 10.0037 12.6047 10.2882C12.6047 10.5729 12.6543 10.8365 12.7374 11.075ZM13.9961 11.0766C13.8592 11.0766 13.725 10.9993 13.6212 10.8565C13.5177 10.7139 13.4504 10.5129 13.4504 10.2882C13.4504 10.0635 13.5177 9.86243 13.6212 9.71991C13.725 9.5771 13.8592 9.49973 13.9961 9.49973C14.1329 9.49973 14.2671 9.5771 14.3709 9.71991C14.4744 9.86243 14.5417 10.0635 14.5417 10.2882C14.5417 10.5129 14.4744 10.7139 14.3709 10.8565C14.2671 10.9993 14.1329 11.0766 13.9961 11.0766ZM5.6412 3.54225L11.7391 6.19012H7.9538L5.29712 5.03434L5.6412 3.54225ZM5.03417 6.19554L5.05922 6.08355L5.31591 6.19554H5.03417ZM19.6044 9.61006L19.2602 11.1074L16.9976 10.1251V8.47945L19.6044 9.61006Z" fill="#F5C249" stroke="#F5C249" stroke-width="0.2"/>
</svg>
