<svg width="21" height="21" viewBox="0 0 21 21" fill="none" xmlns="http://www.w3.org/2000/svg">
<mask id="path-1-outside-1_736_5599" maskUnits="userSpaceOnUse" x="-0.232422" y="-0.5" width="22" height="22" fill="black">
<rect fill="white" x="-0.232422" y="-0.5" width="22" height="22"/>
<path d="M11.7009 20.5H9.83424C9.20341 20.5 8.67091 20.0275 8.59591 19.4L8.39674 17.8367C7.99924 17.7075 7.61591 17.5483 7.25174 17.3625L6.00674 18.33C5.50174 18.7208 4.79091 18.6758 4.35258 18.225L3.04008 16.9125C2.59258 16.4783 2.54758 15.7675 2.93841 15.2633L3.90591 14.0175C3.71924 13.6533 3.56008 13.27 3.43174 12.8725L1.86508 12.6733C1.24008 12.5967 0.767578 12.0642 0.767578 11.4333V9.56667C0.767578 8.93583 1.24008 8.40333 1.86758 8.32833L3.43091 8.12917C3.56008 7.73167 3.71924 7.34833 3.90508 6.98417L2.93841 5.73917C2.54674 5.23417 2.59258 4.5225 3.04424 4.08417L4.35674 2.77167C4.79091 2.32417 5.50258 2.28 6.00591 2.67L7.25091 3.63833C7.61508 3.4525 7.99841 3.29333 8.39674 3.16417L8.59591 1.5975C8.67091 0.9725 9.20341 0.5 9.83424 0.5H11.7009C12.3317 0.5 12.8642 0.9725 12.9392 1.6L13.1384 3.16333C13.5367 3.2925 13.9201 3.45167 14.2842 3.6375L15.5292 2.67C16.0351 2.27917 16.7451 2.32417 17.1834 2.77583L18.4959 4.08833C18.9434 4.5225 18.9884 5.23333 18.5976 5.7375L17.6301 6.98333C17.8167 7.3475 17.9759 7.73083 18.1042 8.12833L19.6709 8.3275C20.2951 8.40333 20.7676 8.93583 20.7676 9.56667V11.4333C20.7676 12.0642 20.2951 12.5967 19.6676 12.6717L18.1042 12.8708C17.9751 13.2683 17.8159 13.6517 17.6301 14.0158L18.5976 15.2608C18.9892 15.7658 18.9434 16.4767 18.4917 16.915L17.1792 18.2275C16.7451 18.675 16.0334 18.7208 15.5301 18.3292L14.2842 17.3617C13.9201 17.5483 13.5367 17.7075 13.1392 17.8358L12.9401 19.4025C12.8642 20.0275 12.3317 20.5 11.7009 20.5ZM7.20925 16.45C7.27841 16.45 7.34924 16.4675 7.41258 16.5025C7.87174 16.7592 8.36924 16.9658 8.89091 17.1158C9.05091 17.1617 9.16841 17.2983 9.18924 17.4633L9.42258 19.2967C9.44758 19.5058 9.62841 19.6667 9.83424 19.6667H11.7009C11.9067 19.6667 12.0876 19.5058 12.1117 19.3008L12.3459 17.4642C12.3667 17.2992 12.4842 17.1625 12.6442 17.1167C13.1659 16.9667 13.6634 16.76 14.1226 16.5033C14.2684 16.4217 14.4501 16.4358 14.5809 16.5383L16.0392 17.6717C16.2067 17.8017 16.4417 17.7908 16.5851 17.6433L17.9059 16.3225C18.0567 16.1758 18.0684 15.9408 17.9384 15.7725L16.8051 14.3142C16.7026 14.1825 16.6884 14.0017 16.7701 13.8558C17.0267 13.3967 17.2334 12.8992 17.3834 12.3775C17.4292 12.2175 17.5659 12.1 17.7309 12.0792L19.5642 11.8458C19.7734 11.82 19.9342 11.6392 19.9342 11.4333V9.56667C19.9342 9.36083 19.7734 9.18 19.5684 9.15583L17.7317 8.92167C17.5667 8.90083 17.4301 8.78333 17.3842 8.62333C17.2342 8.10167 17.0276 7.60417 16.7709 7.145C16.6892 6.99917 16.7026 6.81833 16.8059 6.68667L17.9392 5.22833C18.0701 5.06 18.0584 4.825 17.9117 4.68333L16.5909 3.3625C16.4451 3.21083 16.2092 3.19917 16.0409 3.33L14.5826 4.46333C14.4501 4.56583 14.2692 4.58 14.1234 4.49833C13.6659 4.24167 13.1684 4.03583 12.6451 3.885C12.4851 3.83917 12.3676 3.7025 12.3467 3.5375L12.1134 1.70417C12.0876 1.49417 11.9067 1.33333 11.7009 1.33333H9.83424C9.62841 1.33333 9.44758 1.49417 9.42341 1.69917L9.18924 3.53583C9.16841 3.70083 9.05091 3.8375 8.89091 3.88417C8.36758 4.03417 7.87008 4.24083 7.41258 4.49667C7.26674 4.57917 7.08591 4.56417 6.95341 4.4625L5.49508 3.32917C5.32674 3.19833 5.09258 3.21 4.95008 3.35667L3.62924 4.67833C3.47841 4.825 3.46674 5.06 3.59674 5.22833L4.73008 6.68667C4.83258 6.81833 4.84674 6.99917 4.76508 7.145C4.50758 7.60417 4.30174 8.10167 4.15174 8.62333C4.10591 8.78333 3.96924 8.90083 3.80424 8.92167L1.97091 9.155C1.76174 9.18 1.60091 9.36083 1.60091 9.56667V11.4333C1.60091 11.6392 1.76174 11.82 1.96674 11.8442L3.80341 12.0783C3.96841 12.0992 4.10508 12.2167 4.15091 12.3767C4.30091 12.8983 4.50758 13.3958 4.76424 13.855C4.84591 14.0008 4.83258 14.1817 4.72924 14.3133L3.59591 15.7717C3.46508 15.94 3.47674 16.175 3.62341 16.3167L4.94424 17.6375C5.09008 17.7883 5.32424 17.8 5.49424 17.67L6.95258 16.5367C7.02841 16.48 7.11841 16.45 7.20925 16.45Z"/>
<path d="M10.7675 14.6666C8.47004 14.6666 6.60088 12.7975 6.60088 10.5C6.60088 8.20247 8.47004 6.3333 10.7675 6.3333C13.065 6.3333 14.9342 8.20247 14.9342 10.5C14.9342 12.7975 13.065 14.6666 10.7675 14.6666ZM10.7675 7.16663C8.92921 7.16663 7.43421 8.66163 7.43421 10.5C7.43421 12.3383 8.92921 13.8333 10.7675 13.8333C12.6059 13.8333 14.1009 12.3383 14.1009 10.5C14.1009 8.66163 12.6059 7.16663 10.7675 7.16663Z"/>
</mask>
<path d="M11.7009 20.5H9.83424C9.20341 20.5 8.67091 20.0275 8.59591 19.4L8.39674 17.8367C7.99924 17.7075 7.61591 17.5483 7.25174 17.3625L6.00674 18.33C5.50174 18.7208 4.79091 18.6758 4.35258 18.225L3.04008 16.9125C2.59258 16.4783 2.54758 15.7675 2.93841 15.2633L3.90591 14.0175C3.71924 13.6533 3.56008 13.27 3.43174 12.8725L1.86508 12.6733C1.24008 12.5967 0.767578 12.0642 0.767578 11.4333V9.56667C0.767578 8.93583 1.24008 8.40333 1.86758 8.32833L3.43091 8.12917C3.56008 7.73167 3.71924 7.34833 3.90508 6.98417L2.93841 5.73917C2.54674 5.23417 2.59258 4.5225 3.04424 4.08417L4.35674 2.77167C4.79091 2.32417 5.50258 2.28 6.00591 2.67L7.25091 3.63833C7.61508 3.4525 7.99841 3.29333 8.39674 3.16417L8.59591 1.5975C8.67091 0.9725 9.20341 0.5 9.83424 0.5H11.7009C12.3317 0.5 12.8642 0.9725 12.9392 1.6L13.1384 3.16333C13.5367 3.2925 13.9201 3.45167 14.2842 3.6375L15.5292 2.67C16.0351 2.27917 16.7451 2.32417 17.1834 2.77583L18.4959 4.08833C18.9434 4.5225 18.9884 5.23333 18.5976 5.7375L17.6301 6.98333C17.8167 7.3475 17.9759 7.73083 18.1042 8.12833L19.6709 8.3275C20.2951 8.40333 20.7676 8.93583 20.7676 9.56667V11.4333C20.7676 12.0642 20.2951 12.5967 19.6676 12.6717L18.1042 12.8708C17.9751 13.2683 17.8159 13.6517 17.6301 14.0158L18.5976 15.2608C18.9892 15.7658 18.9434 16.4767 18.4917 16.915L17.1792 18.2275C16.7451 18.675 16.0334 18.7208 15.5301 18.3292L14.2842 17.3617C13.9201 17.5483 13.5367 17.7075 13.1392 17.8358L12.9401 19.4025C12.8642 20.0275 12.3317 20.5 11.7009 20.5ZM7.20925 16.45C7.27841 16.45 7.34924 16.4675 7.41258 16.5025C7.87174 16.7592 8.36924 16.9658 8.89091 17.1158C9.05091 17.1617 9.16841 17.2983 9.18924 17.4633L9.42258 19.2967C9.44758 19.5058 9.62841 19.6667 9.83424 19.6667H11.7009C11.9067 19.6667 12.0876 19.5058 12.1117 19.3008L12.3459 17.4642C12.3667 17.2992 12.4842 17.1625 12.6442 17.1167C13.1659 16.9667 13.6634 16.76 14.1226 16.5033C14.2684 16.4217 14.4501 16.4358 14.5809 16.5383L16.0392 17.6717C16.2067 17.8017 16.4417 17.7908 16.5851 17.6433L17.9059 16.3225C18.0567 16.1758 18.0684 15.9408 17.9384 15.7725L16.8051 14.3142C16.7026 14.1825 16.6884 14.0017 16.7701 13.8558C17.0267 13.3967 17.2334 12.8992 17.3834 12.3775C17.4292 12.2175 17.5659 12.1 17.7309 12.0792L19.5642 11.8458C19.7734 11.82 19.9342 11.6392 19.9342 11.4333V9.56667C19.9342 9.36083 19.7734 9.18 19.5684 9.15583L17.7317 8.92167C17.5667 8.90083 17.4301 8.78333 17.3842 8.62333C17.2342 8.10167 17.0276 7.60417 16.7709 7.145C16.6892 6.99917 16.7026 6.81833 16.8059 6.68667L17.9392 5.22833C18.0701 5.06 18.0584 4.825 17.9117 4.68333L16.5909 3.3625C16.4451 3.21083 16.2092 3.19917 16.0409 3.33L14.5826 4.46333C14.4501 4.56583 14.2692 4.58 14.1234 4.49833C13.6659 4.24167 13.1684 4.03583 12.6451 3.885C12.4851 3.83917 12.3676 3.7025 12.3467 3.5375L12.1134 1.70417C12.0876 1.49417 11.9067 1.33333 11.7009 1.33333H9.83424C9.62841 1.33333 9.44758 1.49417 9.42341 1.69917L9.18924 3.53583C9.16841 3.70083 9.05091 3.8375 8.89091 3.88417C8.36758 4.03417 7.87008 4.24083 7.41258 4.49667C7.26674 4.57917 7.08591 4.56417 6.95341 4.4625L5.49508 3.32917C5.32674 3.19833 5.09258 3.21 4.95008 3.35667L3.62924 4.67833C3.47841 4.825 3.46674 5.06 3.59674 5.22833L4.73008 6.68667C4.83258 6.81833 4.84674 6.99917 4.76508 7.145C4.50758 7.60417 4.30174 8.10167 4.15174 8.62333C4.10591 8.78333 3.96924 8.90083 3.80424 8.92167L1.97091 9.155C1.76174 9.18 1.60091 9.36083 1.60091 9.56667V11.4333C1.60091 11.6392 1.76174 11.82 1.96674 11.8442L3.80341 12.0783C3.96841 12.0992 4.10508 12.2167 4.15091 12.3767C4.30091 12.8983 4.50758 13.3958 4.76424 13.855C4.84591 14.0008 4.83258 14.1817 4.72924 14.3133L3.59591 15.7717C3.46508 15.94 3.47674 16.175 3.62341 16.3167L4.94424 17.6375C5.09008 17.7883 5.32424 17.8 5.49424 17.67L6.95258 16.5367C7.02841 16.48 7.11841 16.45 7.20925 16.45Z" fill="#F5C249"/>
<path d="M10.7675 14.6666C8.47004 14.6666 6.60088 12.7975 6.60088 10.5C6.60088 8.20247 8.47004 6.3333 10.7675 6.3333C13.065 6.3333 14.9342 8.20247 14.9342 10.5C14.9342 12.7975 13.065 14.6666 10.7675 14.6666ZM10.7675 7.16663C8.92921 7.16663 7.43421 8.66163 7.43421 10.5C7.43421 12.3383 8.92921 13.8333 10.7675 13.8333C12.6059 13.8333 14.1009 12.3383 14.1009 10.5C14.1009 8.66163 12.6059 7.16663 10.7675 7.16663Z" fill="#F5C249"/>
<path d="M11.7009 20.5H9.83424C9.20341 20.5 8.67091 20.0275 8.59591 19.4L8.39674 17.8367C7.99924 17.7075 7.61591 17.5483 7.25174 17.3625L6.00674 18.33C5.50174 18.7208 4.79091 18.6758 4.35258 18.225L3.04008 16.9125C2.59258 16.4783 2.54758 15.7675 2.93841 15.2633L3.90591 14.0175C3.71924 13.6533 3.56008 13.27 3.43174 12.8725L1.86508 12.6733C1.24008 12.5967 0.767578 12.0642 0.767578 11.4333V9.56667C0.767578 8.93583 1.24008 8.40333 1.86758 8.32833L3.43091 8.12917C3.56008 7.73167 3.71924 7.34833 3.90508 6.98417L2.93841 5.73917C2.54674 5.23417 2.59258 4.5225 3.04424 4.08417L4.35674 2.77167C4.79091 2.32417 5.50258 2.28 6.00591 2.67L7.25091 3.63833C7.61508 3.4525 7.99841 3.29333 8.39674 3.16417L8.59591 1.5975C8.67091 0.9725 9.20341 0.5 9.83424 0.5H11.7009C12.3317 0.5 12.8642 0.9725 12.9392 1.6L13.1384 3.16333C13.5367 3.2925 13.9201 3.45167 14.2842 3.6375L15.5292 2.67C16.0351 2.27917 16.7451 2.32417 17.1834 2.77583L18.4959 4.08833C18.9434 4.5225 18.9884 5.23333 18.5976 5.7375L17.6301 6.98333C17.8167 7.3475 17.9759 7.73083 18.1042 8.12833L19.6709 8.3275C20.2951 8.40333 20.7676 8.93583 20.7676 9.56667V11.4333C20.7676 12.0642 20.2951 12.5967 19.6676 12.6717L18.1042 12.8708C17.9751 13.2683 17.8159 13.6517 17.6301 14.0158L18.5976 15.2608C18.9892 15.7658 18.9434 16.4767 18.4917 16.915L17.1792 18.2275C16.7451 18.675 16.0334 18.7208 15.5301 18.3292L14.2842 17.3617C13.9201 17.5483 13.5367 17.7075 13.1392 17.8358L12.9401 19.4025C12.8642 20.0275 12.3317 20.5 11.7009 20.5ZM7.20925 16.45C7.27841 16.45 7.34924 16.4675 7.41258 16.5025C7.87174 16.7592 8.36924 16.9658 8.89091 17.1158C9.05091 17.1617 9.16841 17.2983 9.18924 17.4633L9.42258 19.2967C9.44758 19.5058 9.62841 19.6667 9.83424 19.6667H11.7009C11.9067 19.6667 12.0876 19.5058 12.1117 19.3008L12.3459 17.4642C12.3667 17.2992 12.4842 17.1625 12.6442 17.1167C13.1659 16.9667 13.6634 16.76 14.1226 16.5033C14.2684 16.4217 14.4501 16.4358 14.5809 16.5383L16.0392 17.6717C16.2067 17.8017 16.4417 17.7908 16.5851 17.6433L17.9059 16.3225C18.0567 16.1758 18.0684 15.9408 17.9384 15.7725L16.8051 14.3142C16.7026 14.1825 16.6884 14.0017 16.7701 13.8558C17.0267 13.3967 17.2334 12.8992 17.3834 12.3775C17.4292 12.2175 17.5659 12.1 17.7309 12.0792L19.5642 11.8458C19.7734 11.82 19.9342 11.6392 19.9342 11.4333V9.56667C19.9342 9.36083 19.7734 9.18 19.5684 9.15583L17.7317 8.92167C17.5667 8.90083 17.4301 8.78333 17.3842 8.62333C17.2342 8.10167 17.0276 7.60417 16.7709 7.145C16.6892 6.99917 16.7026 6.81833 16.8059 6.68667L17.9392 5.22833C18.0701 5.06 18.0584 4.825 17.9117 4.68333L16.5909 3.3625C16.4451 3.21083 16.2092 3.19917 16.0409 3.33L14.5826 4.46333C14.4501 4.56583 14.2692 4.58 14.1234 4.49833C13.6659 4.24167 13.1684 4.03583 12.6451 3.885C12.4851 3.83917 12.3676 3.7025 12.3467 3.5375L12.1134 1.70417C12.0876 1.49417 11.9067 1.33333 11.7009 1.33333H9.83424C9.62841 1.33333 9.44758 1.49417 9.42341 1.69917L9.18924 3.53583C9.16841 3.70083 9.05091 3.8375 8.89091 3.88417C8.36758 4.03417 7.87008 4.24083 7.41258 4.49667C7.26674 4.57917 7.08591 4.56417 6.95341 4.4625L5.49508 3.32917C5.32674 3.19833 5.09258 3.21 4.95008 3.35667L3.62924 4.67833C3.47841 4.825 3.46674 5.06 3.59674 5.22833L4.73008 6.68667C4.83258 6.81833 4.84674 6.99917 4.76508 7.145C4.50758 7.60417 4.30174 8.10167 4.15174 8.62333C4.10591 8.78333 3.96924 8.90083 3.80424 8.92167L1.97091 9.155C1.76174 9.18 1.60091 9.36083 1.60091 9.56667V11.4333C1.60091 11.6392 1.76174 11.82 1.96674 11.8442L3.80341 12.0783C3.96841 12.0992 4.10508 12.2167 4.15091 12.3767C4.30091 12.8983 4.50758 13.3958 4.76424 13.855C4.84591 14.0008 4.83258 14.1817 4.72924 14.3133L3.59591 15.7717C3.46508 15.94 3.47674 16.175 3.62341 16.3167L4.94424 17.6375C5.09008 17.7883 5.32424 17.8 5.49424 17.67L6.95258 16.5367C7.02841 16.48 7.11841 16.45 7.20925 16.45Z" stroke="#F5C249" stroke-width="0.4" mask="url(#path-1-outside-1_736_5599)"/>
<path d="M10.7675 14.6666C8.47004 14.6666 6.60088 12.7975 6.60088 10.5C6.60088 8.20247 8.47004 6.3333 10.7675 6.3333C13.065 6.3333 14.9342 8.20247 14.9342 10.5C14.9342 12.7975 13.065 14.6666 10.7675 14.6666ZM10.7675 7.16663C8.92921 7.16663 7.43421 8.66163 7.43421 10.5C7.43421 12.3383 8.92921 13.8333 10.7675 13.8333C12.6059 13.8333 14.1009 12.3383 14.1009 10.5C14.1009 8.66163 12.6059 7.16663 10.7675 7.16663Z" stroke="#F5C249" stroke-width="0.4" mask="url(#path-1-outside-1_736_5599)"/>
</svg>
