<svg width="19" height="21" viewBox="0 0 19 21" fill="none" xmlns="http://www.w3.org/2000/svg">
<path d="M9.76758 0.5C8.73667 0.5 8.00849 1.15926 7.64849 1.98148H0.767578V20.5H18.7676V1.98148H11.8867C11.5267 1.15926 10.7985 0.5 9.76758 0.5ZM9.76758 1.98148C10.2176 1.98148 10.5858 2.31481 10.5858 2.72222V3.46296H13.0403V4.94444H6.49485V3.46296H8.9494V2.72222C8.9494 2.31481 9.31758 1.98148 9.76758 1.98148ZM2.40394 3.46296H4.85849V6.42593H14.6767V3.46296H17.1312V19.0185H2.40394V3.46296ZM4.04031 8.64815V10.1296H5.67667V8.64815H4.04031ZM7.31303 8.64815V10.1296H15.4949V8.64815H7.31303ZM4.04031 11.6111V13.0926H5.67667V11.6111H4.04031ZM7.31303 11.6111V13.0926H15.4949V11.6111H7.31303ZM4.04031 14.5741V16.0556H5.67667V14.5741H4.04031ZM7.31303 14.5741V16.0556H15.4949V14.5741H7.31303Z" fill="#F5C249"/>
</svg>
