<svg width="21" height="21" viewBox="0 0 21 21" fill="none" xmlns="http://www.w3.org/2000/svg">
<path d="M0.767578 0.5V19.0714H13.0753V17.6429H2.30604V1.92857H9.99835V6.21429H14.6137V7.64286H16.1522V5.21429L15.9214 5L11.306 0.714286L11.0753 0.5H0.767578ZM11.5368 2.92857L13.5368 4.78571H11.5368V2.92857ZM3.8445 7.64286V9.07143H13.0753V7.64286H3.8445ZM16.9214 9.07143V10.5C15.6137 10.7143 14.6137 11.7143 14.6137 13C14.6137 14.4286 15.7676 15.5 17.306 15.5H18.0753C18.6907 15.5 19.2291 16 19.2291 16.5714C19.2291 17.1429 18.6907 17.6429 18.0753 17.6429H15.383V19.0714H16.9214V20.5H18.4599V19.0714C19.7676 18.8571 20.7676 17.8571 20.7676 16.5714C20.7676 15.1429 19.6137 14.0714 18.0753 14.0714H17.306C16.6907 14.0714 16.1522 13.5714 16.1522 13C16.1522 12.4286 16.6907 11.9286 17.306 11.9286H19.9983V10.5H18.4599V9.07143H16.9214ZM3.8445 11.2143V12.6429H9.22912V11.2143H3.8445ZM10.7676 11.2143V12.6429H13.0753V11.2143H10.7676ZM3.8445 14.0714V15.5H9.22912V14.0714H3.8445ZM10.7676 14.0714V15.5H13.0753V14.0714H10.7676Z" fill="#F5C249"/>
</svg>
